<?xml version="1.0" encoding="UTF-8"?><svg id="Layer_2" xmlns="http://www.w3.org/2000/svg" xmlns:xlink="http://www.w3.org/1999/xlink" viewBox="0 0 476.08 476.08"><defs><style>.cls-1{fill:#fff;}.cls-2{clip-path:url(#clippath);}.cls-3{fill:none;}.cls-4{fill:#231f20;}</style><clipPath id="clippath"><circle class="cls-4" cx="238.04" cy="238.04" r="238.04"/></clipPath></defs><g id="Layer_1-2"><g><circle class="cls-4" cx="238.04" cy="238.04" r="238.04"/><g class="cls-2"><g id="Layer_1-2"><g><path class="cls-1" d="M179.01,398.18H112.69c.32-1.7,.57-3.41,.98-5.09,1.45-5.88,3.34-11.67,4.39-17.62,3.54-20.06,14.62-33.42,34.01-39.72,4.21-1.37,8.43-2.73,12.62-4.16,19.21-6.56,30.95-19.45,34.71-39.83,2.25-12.2,2.54-24.39,2.22-36.68-.15-5.55-.59-11.1-.9-16.64l-.98-.05c-.78,4.13-1.57,8.27-2.35,12.4-3.4-18.48,2.27-36.31,4.19-54.7-2.79,.97-4.91,1.84-7.09,2.44-9.3,2.56-18.41,.02-27.56-1.19-4.89-.65-8.4-3.46-11.14-7.33-6.24-8.82-10.28-18.64-12.32-29.21-.59-3.06-.96-6.82,.27-9.45,4.77-10.23,9.87-20.36,15.65-30.05,1.88-3.15,5.93-5.6,9.52-7,7.74-3.03,16.29,.41,22.64,8.3,2.26,2.81,4.22,5.85,6.35,8.83,5.65-4.36,11.05-8.61,16.52-12.75,20.2-15.31,42.43-24.4,68.26-24.4,7.11,0,14.22-3.46,21.32-5.36,1.42-.38,2.81-.88,5.28-1.66-1.49,2.46-2.31,3.82-3.4,5.61,2.72-.63,4.78-1.18,6.87-1.58,2.1-.4,5.14,2.2,4.16,3.74-2.1,3.3,.5,4.59,1.97,6.41,2.29,2.83,4.57,5.69,7.07,8.33,2.59,2.72,3.26,5.64,2.3,9.27-.92,3.49-1.38,7.1-2.19,11.45,2.77-1.97,4.86-3.61,7.1-5.01,10.42-6.53,23.18-2.45,27.79,8.98,1.14,2.83,1.65,5.91,2.45,8.88v3.25c-1.65,4.52-2.72,9.36-5.04,13.49-7.92,14.14-19.49,24.89-32.69,34.02-1.42,.98-2.77,2.75-3.16,4.39-.64,2.71-1.21,5.83-.48,8.4,2.17,7.59,4.49,15.21,7.68,22.41,4.31,9.73,6.46,19.4,2.95,29.77-.98,2.88-2.64,5.7,.02,8.6,.34,.38,.32,1.38,.1,1.94-1.42,3.58-2.67,7.28-4.54,10.61-.89,1.59-2.87,3.13-4.63,3.56-5.45,1.34-11,2.84-16.56,3.02-14.26,.45-28.55,.21-42.83,.26-1.31,0-2.62,.13-4.1,.21-.12,1.16-.27,2.07-.3,2.99-.45,15.14,10.17,31.07,24.81,37.19,4.71,1.97,9.48,3.8,14.19,5.79,11.97,5.06,19.9,13.57,22.19,26.72,1.52,8.76,3.16,17.51,4.21,26.32,.46,3.89-.39,7.93-.65,11.91h-14.56c-5.65-13.83-13.71-26.08-24.27-38.01,.24,3.78,.41,6.55,.58,9.32-.25,.05-.5,.09-.75,.14-1.05-2.06-2.1-4.11-3.62-7.07-.33,4.09-.4,7.15-.86,10.15-.43,2.79-1.29,5.52-1.96,8.27-.43-.1-.85-.19-1.28-.29-.13-1.32-.27-2.64-.44-4.31-4.09,6.41-8.82,12.2-4.26,19.88,.42-.51,.83-1.02,1.41-1.72,.58,1.44,1.03,2.54,1.47,3.64h-4.04c-1.42-3.24-1.99-7.58-4.44-9.49-5.97-4.65-12.81-8.16-19.29-12.13-.17,.19-.34,.37-.51,.56,.57,1.25,1.14,2.49,1.89,4.14-6.05-.85-9.67-4.78-14-9.13,1.21,4.12,2.13,7.29,3.28,11.21-6.16-5.71-7.53-9.18-10.12-24.79-2.09,1.96-4.01,3.75-6.69,6.25,.89-2.55,1.37-3.91,2.14-6.11-12.15,7.15-22.91,14.51-32.12,23.83-4.77,4.83-8.78,10.41-13.14,15.66h.02Zm8.22-253.35c3.59-.86,7.18-1.72,11.36-2.73-2.71-3.45-5.58-6.96-8.29-10.6-7.22-9.73-21.59-8.13-27.68,3.27-6.83,12.78-7.35,25.81-1.96,38.98,5.96,14.57,26.31,20.3,38.88,11.3,4.73-3.39,5.82-8.58,2.66-13.11-2.77,3.8-5.12,8.06-10.81,9.7,2.43-2.5,4.35-4.39,6.16-6.36,3.32-3.61,5.47-7.79,4.79-12.83-.71-5.2-1.79-10.34-2.66-15.51-.39-2.3-1.85-2.55-3.81-2.38-6.56,.56-14.91,8.06-16.66,16.29-.87,4.08,.18,8.57,.33,12.19-4.01-4.26-4.69-12.1-.56-18.28,2.3-3.44,5.26-6.43,7.92-9.62,.11-.1,.21-.2,.32-.29v-.02Zm50.78,6.01c12.47-1.09,25.18-2.2,37.94-3.32-.9-5.52-1.68-10.27-2.46-15.02,.43-.09,.86-.19,1.29-.28,1.5,5.09,3.12,10.15,4.33,15.3,.16,.69-1.6,2.26-2.75,2.74-2.49,1.04-5.35,1.27-7.7,2.51-3.14,1.65-6.09,2.75-9.56,1.27-7.33-3.13-14.93-2.19-22.62-1.2,2.59,1.31,5.26,2.32,8.02,2.96,10.19,2.36,20.39,4.55,29.88-2.35,.32-.23,.96-.35,1.29-.19,2.35,1.17,4.65,2.42,6.6,3.46-2.94,.79-6.16,1.65-9.39,2.52,6.62,1.23,12.76-3.39,20.23,.03-5.98,1.08-11.06,2-16.14,2.91,.03,.27,.06,.54,.09,.81h18.83v.47c-2.18,.47-4.37,.94-6.63,1.43-.12,2.21-.23,4.22-.33,6.23-.2,0-.4-.02-.6-.03-.14-2.09-.29-4.19-.45-6.62-8.32,.38-16.42,.29-24.39,1.27-6.6,.81-13.07,2.81-19.54,4.46-3.23,.82-4.92,3.16-4.95,6.55-.03,3.6,2.29,5.27,5.34,6.21,1.41,.43,2.87,.66,4.32,.96,2.17,.45,4.35,.89,7.02,1.44-.97,1.8-1.65,3.07-2.34,4.34-8.77,16.25-17.86,32.35-26.21,48.82-5.39,10.62-1.9,25.6,6.62,33.15,2.81,2.49,5.59,4.14,9.36,1.72,1.17-.75,2.82-.95,4.27-1,8.75-.33,17.5-.63,26.25-.79,7.11-.12,14.22-.03,21.47-.03,.23-1.57,.41-2.79,.6-4.02,1.34,1.44,2.55,2.74,3.85,4.14-18.33,1.64-37.12,.58-55.57,3.78,26.72,6.06,53.31,4.66,79.82-1.45-25.7,8.42-51.79,10-78.42,5.41,3.28,1.69,6.65,3.24,10.09,3.43,14.11,.76,28.25,1.2,42.38,1.55,8.19,.2,16.5,.82,24.29-2.57,1.73-.75,3.61-2.12,4.46-3.71,1.59-2.97,2.47-6.32,4.02-10.55-1.85-.17-4.05-.79-6.12-.49-4.51,.65-8.94,1.92-13.45,2.59-.96,.14-2.87-.95-3.1-1.81-2.12-7.88-3.96-15.84-5.89-23.77l.67-.21c1.43,3.94,2.86,7.88,4.29,11.81,.13-.04,.26-.09,.4-.13-.27-2.72-.54-5.44-.81-8.17,.26-.04,.52-.07,.78-.11,1.25,6.76,2.51,13.52,3.82,20.58,5.43-1.03,10.34-1.81,15.15-2.98,1.19-.29,2.47-1.67,3.02-2.87,3.84-8.43,4.86-17.03,1.16-25.86-6.78-16.15-13.42-32.37-20.28-48.48-1.29-3.03-.92-4.52,2.25-5.79,3.96-1.58,8.75-2.81,7.52-9.45,2.56,6.79,7.34,1.22,11.64,3.33-2.74,1.01-4.7,2.15-6.76,2.41-5.41,.67-5.43,.51-4.6,6.14,.2,1.4,.41,2.79,.71,4.84,2.46-1.97,4.75-3.27,6.33-5.17,7.43-8.91,14.84-17.85,21.9-27.05,4.96-6.46,4.78-14.48,.29-21.2-1.61-2.41-3.49-3.53-6.47-2.21-5.29,2.34-10.71,4.37-15.99,6.73-1.37,.61-2.41,1.98-3.6,3.01,16.64-3.24,17.59-3.26,21.35,.45-2.06,.2-3.94,.38-5.92,.58,3.58,8.27,1.89,17.06-4.41,22.37,.84-2.29,1.79-4.1,2.13-6.01,.69-3.95,1.59-7.98,1.4-11.93-.24-4.97-.87-5.07-5.88-3.94-1.57,.36-3.15,.9-4.74,.93-4.03,.08-5.39,2.33-6,6.02-.96,5.78-2.39,11.48-3.73,17.7-2.64-1.53-4.67-2.7-6.72-3.88,1.3-4.06,2.47-7.71,3.97-12.39-2.27,2.11-3.73,3.46-4.91,4.56-4.79-2.48-11.06,2.2-14.94-3.48,10.88,1.79,14.06,1.04,17.31-4.3-5.03,2.03-9.6,4.86-15.17,2.64-3.07-1.22-6.66-2.96-9.33,1.56,.79-4.1,1.58-8.2,2.37-12.31,.4,.07,.79,.15,1.19,.22-.23,2.44-.47,4.87-.73,7.57,7-.44,13.49-.85,19.87-1.25,.09-.96,.19-1.24,.12-1.48-.76-2.72-1.5-5.46-2.33-8.16-1.77-5.77-2.72-6.2-8.2-3.37-2.55,1.32-4.96,2.91-8.1,4.77,.36-6.48,.67-12.08,.98-17.79-1.51,.36-2.15,1.99-3.76,7.72-.3-1.65-.11-3.34-.37-4.96-.16-.99-.81-2.52-1.53-2.71-10.22-2.74-20.24-6.33-31.19-5.09-15.2,1.73-31.57,15.19-35.34,30.03-1.67,6.6-.82,13.26,4.34,18.04,5.16,4.77,11.54,5.67,18.47,3.47,5.85-1.86,11.93-3.04,17.93-4.41,3.37-.77,6.23-2.15,8.27-5.42h-23.15c.11,.11,.97,.93,2.08,2-5.48-.16-11.41-2.75-14.21-6.6-.77-1.05-.85-3.43-.19-4.59,5.06-8.77,11.98-15.67,21.59-19.26,5.95-2.23,12.13-3.01,18.53-.39-16.07-.12-28.83,5.6-36.47,20.65h-.05Zm76.47-.35c.27,0,.54-.01,.81-.02,.15-1.07,.38-2.13,.44-3.2,.46-9.57,.87-19.13,1.34-28.7,.3-6.12-1.83-7.82-7.42-5.13-4.94,2.39-9.55,5.48-14.27,8.33-.61,.37-1.37,1.15-1.39,1.76-.12,4.2-.06,8.41-.06,13.04,6.69-3.28,12.46-8.35,19.45-2.53-1.25-.1-2.5-.2-4.29-.35,1.9,5.92,3.65,11.36,5.39,16.79h0Z"/><path class="cls-3" d="M363.42,143.33c-.8-2.97-1.31-6.05-2.45-8.88-4.61-11.43-17.37-15.51-27.79-8.98-2.24,1.4-4.32,3.04-7.1,5.01,.81-4.35,1.27-7.96,2.19-11.45,.96-3.63,.28-6.55-2.3-9.27-2.5-2.64-4.78-5.49-7.07-8.33-1.47-1.82-4.07-3.1-1.97-6.41,.98-1.54-2.05-4.14-4.16-3.74-2.09,.4-4.15,.95-6.87,1.58,1.09-1.79,1.91-3.15,3.4-5.61-2.46,.78-3.85,1.28-5.28,1.66-7.1,1.9-14.21,5.36-21.32,5.36-25.83,0-48.06,9.09-68.26,24.4-5.47,4.15-10.88,8.39-16.52,12.75-2.13-2.98-4.1-6.02-6.35-8.83-6.34-7.9-14.89-11.33-22.64-8.3-3.59,1.4-7.63,3.85-9.52,7-5.78,9.68-10.87,19.81-15.65,30.05-1.23,2.64-.86,6.4-.27,9.45,2.03,10.57,6.08,20.39,12.32,29.21,2.74,3.87,6.25,6.69,11.14,7.33,9.15,1.21,18.26,3.75,27.56,1.19,2.19-.6,4.3-1.47,7.09-2.44-1.92,18.39-7.59,36.22-4.19,54.7,.78-4.13,1.57-8.27,2.35-12.4l.98,.05c.31,5.55,.75,11.09,.9,16.64,.32,12.28,.03,24.47-2.22,36.68-3.76,20.38-15.5,33.27-34.71,39.83-4.19,1.43-8.41,2.8-12.62,4.16-19.39,6.29-30.48,19.66-34.01,39.72-1.05,5.95-2.94,11.74-4.39,17.62-.41,1.67-.66,3.39-.98,5.09h-3.25V83.36h253.96v59.97Z"/><path class="cls-3" d="M324.6,398.18c.26-3.97,1.11-8.02,.65-11.91-1.05-8.82-2.68-17.57-4.21-26.32-2.29-13.15-10.22-21.66-22.19-26.72-4.7-1.99-9.47-3.82-14.19-5.79-14.64-6.12-25.26-22.05-24.81-37.19,.03-.92,.18-1.83,.3-2.99,1.48-.08,2.79-.2,4.1-.21,14.28-.05,28.56,.19,42.83-.26,5.55-.17,11.11-1.67,16.56-3.02,1.76-.43,3.74-1.97,4.63-3.56,1.87-3.34,3.12-7.03,4.54-10.61,.22-.56,.25-1.56-.1-1.94-2.66-2.91-1-5.72-.02-8.6,3.51-10.37,1.36-20.04-2.95-29.77-3.19-7.2-5.51-14.82-7.68-22.41-.73-2.56-.16-5.69,.48-8.4,.38-1.64,1.74-3.41,3.16-4.39,13.21-9.13,24.78-19.88,32.69-34.02,2.32-4.14,3.39-8.98,5.04-13.49v251.6h-38.83Z"/><path class="cls-3" d="M179.01,398.18c4.35-5.24,8.36-10.83,13.14-15.66,9.22-9.32,19.98-16.68,32.12-23.83-.77,2.19-1.24,3.56-2.14,6.11,2.68-2.51,4.6-4.3,6.69-6.25,2.59,15.61,3.96,19.08,10.12,24.79-1.15-3.92-2.07-7.09-3.28-11.21,4.33,4.34,7.95,8.27,14,9.13-.75-1.65-1.32-2.89-1.89-4.14,.17-.19,.34-.37,.51-.56,6.49,3.97,13.33,7.48,19.29,12.13,2.45,1.91,3.02,6.26,4.44,9.49h-93Z"/><path class="cls-3" d="M276.07,398.18c-.44-1.1-.89-2.2-1.47-3.64-.57,.7-.99,1.21-1.41,1.72-4.56-7.69,.16-13.47,4.26-19.88,.17,1.67,.3,2.99,.44,4.31,.43,.1,.85,.19,1.28,.29,.67-2.75,1.53-5.48,1.96-8.27,.47-3,.54-6.07,.86-10.15,1.51,2.96,2.57,5.02,3.62,7.07,.25-.05,.5-.09,.75-.14-.17-2.77-.35-5.53-.58-9.32,10.56,11.92,18.62,24.18,24.27,38.01h-33.98Z"/><path class="cls-3" d="M238,150.85c7.65-15.05,20.4-20.76,36.47-20.65-6.39-2.62-12.57-1.83-18.53,.39-9.61,3.59-16.53,10.49-21.59,19.26-.66,1.15-.58,3.53,.19,4.59,2.81,3.85,8.73,6.43,14.21,6.6-1.11-1.07-1.97-1.89-2.08-2h23.15c-2.04,3.27-4.9,4.66-8.27,5.42-6,1.37-12.07,2.55-17.93,4.41-6.94,2.2-13.31,1.3-18.47-3.47-5.16-4.77-6.02-11.43-4.34-18.04,3.76-14.84,20.13-28.3,35.34-30.03,10.95-1.25,20.98,2.35,31.19,5.09,.72,.19,1.38,1.72,1.53,2.71,.25,1.62,.07,3.31,.37,4.96,1.61-5.74,2.25-7.36,3.76-7.72-.32,5.72-.62,11.32-.98,17.79,3.14-1.86,5.55-3.46,8.1-4.77,5.48-2.83,6.43-2.41,8.2,3.37,.83,2.7,1.57,5.43,2.33,8.16,.07,.24-.04,.53-.12,1.48-6.38,.4-12.87,.81-19.87,1.25,.26-2.7,.5-5.14,.73-7.57-.4-.07-.79-.15-1.19-.22-.79,4.1-1.58,8.2-2.37,12.31,2.67-4.52,6.26-2.78,9.33-1.56,5.56,2.21,10.14-.62,15.17-2.64-3.25,5.34-6.43,6.1-17.31,4.3,3.89,5.69,10.15,1,14.94,3.48,1.18-1.09,2.63-2.45,4.91-4.56-1.5,4.68-2.67,8.32-3.97,12.39,2.05,1.18,4.07,2.35,6.72,3.88,1.34-6.22,2.78-11.92,3.73-17.7,.61-3.69,1.97-5.93,6-6.02,1.59-.03,3.17-.57,4.74-.93,5-1.13,5.64-1.03,5.88,3.94,.19,3.95-.71,7.98-1.4,11.93-.33,1.91-1.29,3.72-2.13,6.01,6.31-5.32,7.99-14.1,4.41-22.37,1.98-.19,3.86-.38,5.92-.58-3.76-3.7-4.72-3.69-21.35-.45,1.19-1.02,2.23-2.39,3.6-3.01,5.28-2.36,10.7-4.39,15.99-6.73,2.99-1.32,4.86-.21,6.47,2.21,4.49,6.72,4.66,14.75-.29,21.2-7.06,9.2-14.47,18.14-21.9,27.05-1.58,1.9-3.88,3.2-6.33,5.17-.3-2.05-.5-3.45-.71-4.84-.83-5.63-.81-5.48,4.6-6.14,2.06-.25,4.02-1.4,6.76-2.41-4.29-2.11-9.08,3.46-11.64-3.33,1.24,6.65-3.55,7.88-7.52,9.45-3.18,1.26-3.54,2.76-2.25,5.79,6.86,16.12,13.5,32.33,20.28,48.48,3.7,8.83,2.68,17.43-1.16,25.86-.55,1.2-1.83,2.58-3.02,2.87-4.81,1.17-9.72,1.95-15.15,2.98-1.31-7.06-2.56-13.82-3.82-20.58-.26,.03-.52,.07-.78,.11,.27,2.72,.54,5.44,.81,8.17-.13,.04-.26,.09-.4,.13-1.43-3.94-2.86-7.88-4.29-11.81l-.67,.21c1.92,7.93,3.77,15.89,5.89,23.77,.23,.86,2.14,1.95,3.1,1.81,4.51-.68,8.93-1.94,13.45-2.59,2.06-.3,4.26,.32,6.12,.49-1.56,4.23-2.44,7.58-4.02,10.55-.85,1.6-2.74,2.96-4.46,3.71-7.79,3.39-16.1,2.78-24.29,2.57-14.13-.35-28.26-.79-42.38-1.55-3.44-.18-6.81-1.74-10.09-3.43,26.63,4.59,52.72,3.01,78.42-5.41-26.51,6.11-53.1,7.5-79.82,1.45,18.45-3.2,37.24-2.14,55.57-3.78-1.3-1.4-2.51-2.7-3.85-4.14-.18,1.23-.36,2.46-.6,4.02-7.24,0-14.36-.1-21.47,.03-8.75,.15-17.5,.45-26.25,.79-1.45,.06-3.1,.25-4.27,1-3.78,2.42-6.56,.77-9.36-1.72-8.52-7.54-12-22.52-6.62-33.15,8.36-16.47,17.44-32.56,26.21-48.82,.69-1.27,1.37-2.55,2.34-4.34-2.67-.55-4.85-.98-7.02-1.44-1.44-.3-2.91-.53-4.32-.96-3.05-.93-5.37-2.6-5.34-6.21,.03-3.39,1.72-5.73,4.95-6.55,6.48-1.65,12.95-3.65,19.54-4.46,7.97-.98,16.06-.89,24.39-1.27,.17,2.44,.31,4.53,.45,6.62,.2,0,.4,.02,.6,.03,.11-2.01,.21-4.02,.33-6.23,2.26-.49,4.45-.96,6.63-1.43v-.47h-18.83c-.03-.27-.06-.54-.09-.81,5.08-.92,10.16-1.83,16.14-2.91-7.47-3.41-13.61,1.21-20.23-.03,3.23-.87,6.46-1.73,9.39-2.52-1.95-1.03-4.25-2.29-6.6-3.46-.33-.16-.97-.04-1.29,.19-9.49,6.9-19.69,4.71-29.88,2.35-2.76-.64-5.43-1.65-8.02-2.96,7.7-1,15.3-1.93,22.62,1.2,3.47,1.48,6.42,.38,9.56-1.27,2.36-1.24,5.22-1.47,7.7-2.51,1.15-.48,2.91-2.05,2.75-2.74-1.21-5.16-2.84-10.21-4.33-15.3-.43,.09-.86,.19-1.29,.28,.78,4.75,1.56,9.5,2.46,15.02-12.76,1.12-25.47,2.23-37.94,3.32h.05Zm41.37,39.31c.54-.44,1.07-.87,1.61-1.31-2.11-4.32-4.22-8.65-6.37-12.95-.15-.3-.64-.52-1.02-.62-5.93-1.53-11.82-4.28-18.04-1.89-1.87,.72-3.26,2.7-4.86,4.1,1.78,1.6,3.31,3.83,5.4,4.62,2.12,.8,4.87,.63,7.17,.12,7.31-1.64,13.45-1.05,16.12,7.92h0Zm12.52-4.17c1.67-4.86,5.23-5.83,9.69-5.43,1.84,.17,3.95,.29,5.53-.46,1.84-.87,3.23-2.71,4.81-4.13-1.76-1.39-3.34-3.61-5.3-4.03-8.32-1.76-14.86,4.52-14.72,14.05h0Zm-3.71,4.48c-.36,10.94,2.1,23.19,8.39,33.69-2.82-11.31-5.82-23.35-8.39-33.69Zm1.9-10c3.13-4.46,3.9-9.25,1.92-14.31-.9,4.35-1.45,8.74-1.97,13.13-.05,.39,.03,.79,.05,1.18Z"/><path class="cls-3" d="M186.92,145.13c-2.66,3.19-5.63,6.18-7.92,9.62-4.13,6.18-3.45,14.03,.56,18.28-.15-3.62-1.2-8.11-.33-12.19,1.75-8.23,10.1-15.73,16.66-16.29,1.96-.17,3.42,.08,3.81,2.38,.87,5.17,1.95,10.32,2.66,15.51,.68,5.04-1.47,9.22-4.79,12.83-1.82,1.98-3.73,3.86-6.16,6.36,5.69-1.63,8.04-5.9,10.81-9.7,3.16,4.53,2.07,9.72-2.66,13.11-12.57,9.01-32.93,3.27-38.88-11.3-5.39-13.17-4.86-26.2,1.96-38.98,6.09-11.41,20.46-13,27.68-3.27,2.7,3.64,5.58,7.15,8.29,10.6-4.18,1-7.77,1.87-11.36,2.73-1.42-5.27-6.03-6.02-10.24-6.81-7.3-1.38-14.11,3.47-14.65,10.01,12.28-9.33,16.99-9.89,24.57-2.9h0Z"/><path class="cls-3" d="M314.48,150.49c-1.75-5.44-3.49-10.87-5.39-16.79,1.79,.15,3.04,.25,4.29,.35-6.99-5.82-12.75-.75-19.45,2.53,0-4.63-.06-8.84,.06-13.04,.02-.61,.77-1.39,1.39-1.76,4.71-2.85,9.32-5.94,14.27-8.33,5.59-2.7,7.72-.99,7.42,5.13-.47,9.56-.88,19.13-1.34,28.7-.05,1.07-.29,2.13-.44,3.2-.27,0-.54,.01-.81,.02h0Z"/><path class="cls-1" d="M279.38,190.17c-2.67-8.98-8.81-9.56-16.12-7.92-2.3,.52-5.05,.69-7.17-.12-2.08-.79-3.62-3.02-5.4-4.62,1.61-1.4,2.99-3.38,4.86-4.1,6.22-2.39,12.11,.36,18.04,1.89,.37,.1,.87,.31,1.02,.62,2.15,4.3,4.25,8.63,6.37,12.95-.54,.43-1.07,.87-1.61,1.31h0Z"/><path class="cls-1" d="M291.9,185.99c-.14-9.52,6.4-15.81,14.72-14.05,1.96,.42,3.54,2.64,5.3,4.03-1.58,1.42-2.97,3.26-4.81,4.13-1.57,.75-3.69,.63-5.53,.46-4.46-.4-8.02,.57-9.69,5.43h0Z"/><path class="cls-1" d="M288.18,190.47c2.58,10.34,5.58,22.38,8.39,33.69-6.29-10.5-8.75-22.74-8.39-33.69Z"/><path class="cls-1" d="M290.09,180.47c-.02-.39-.09-.8-.05-1.18,.52-4.39,1.07-8.78,1.97-13.13,1.98,5.06,1.2,9.85-1.92,14.31Z"/><path class="cls-1" d="M186.92,145.13c-7.58-6.99-12.3-6.44-24.57,2.9,.54-6.53,7.35-11.39,14.65-10.01,4.21,.8,8.82,1.54,10.24,6.81-.11,.1-.21,.2-.32,.29h0Z"/></g></g></g></g></g></svg>