<?xml version="1.0" encoding="UTF-8" standalone="no"?>
<!-- Created with Inkscape (http://www.inkscape.org/) -->

<svg
   width="162.15501mm"
   height="63.217964mm"
   viewBox="0 0 162.15501 63.217964"
   version="1.1"
   id="svg5"
   inkscape:export-filename="icon.svg"
   inkscape:export-xdpi="96"
   inkscape:export-ydpi="96"
   sodipodi:docname="icon.svg"
   inkscape:version="1.2.1 (9c6d41e410, 2022-07-14)"
   xmlns:inkscape="http://www.inkscape.org/namespaces/inkscape"
   xmlns:sodipodi="http://sodipodi.sourceforge.net/DTD/sodipodi-0.dtd"
   xmlns:xlink="http://www.w3.org/1999/xlink"
   xmlns="http://www.w3.org/2000/svg"
   xmlns:svg="http://www.w3.org/2000/svg">
  <sodipodi:namedview
     id="namedview7"
     pagecolor="#ffffff"
     bordercolor="#000000"
     borderopacity="0.25"
     inkscape:showpageshadow="2"
     inkscape:pageopacity="0.0"
     inkscape:pagecheckerboard="0"
     inkscape:deskcolor="#d1d1d1"
     inkscape:document-units="mm"
     showgrid="false"
     inkscape:zoom="1.5625561"
     inkscape:cx="451.50379"
     inkscape:cy="401.90557"
     inkscape:window-width="1920"
     inkscape:window-height="1057"
     inkscape:window-x="-8"
     inkscape:window-y="525"
     inkscape:window-maximized="1"
     inkscape:current-layer="g1363" />
  <defs
     id="defs2">
    <linearGradient
       id="linearGradient844"
       inkscape:swatch="solid">
      <stop
         style="stop-color:#000000;stop-opacity:1;"
         offset="0"
         id="stop842" />
    </linearGradient>
    <linearGradient
       inkscape:collect="always"
       xlink:href="#linearGradient844"
       id="linearGradient846"
       x1="21.781837"
       y1="120.22234"
       x2="81.169128"
       y2="120.22234"
       gradientUnits="userSpaceOnUse"
       gradientTransform="matrix(0.96399297,0,0,0.97959198,48.124234,-205.34567)" />
    <linearGradient
       inkscape:collect="always"
       xlink:href="#linearGradient844"
       id="linearGradient986"
       gradientUnits="userSpaceOnUse"
       gradientTransform="matrix(0.96399297,0,0,0.97959198,110.33176,-15.192261)"
       x1="21.781837"
       y1="120.22234"
       x2="81.169128"
       y2="120.22234" />
  </defs>
  <g
     inkscape:label="reading-glasses"
     inkscape:groupmode="layer"
     id="layer1"
     inkscape:export-filename="icon4.svg"
     inkscape:export-xdpi="100.09312"
     inkscape:export-ydpi="100.09312"
     transform="translate(-19.311705,-88.090688)">
    <g
       id="g1363"
       style="stroke-width:6;stroke-dasharray:none">
      <path
         style="fill:none;stroke:url(#linearGradient846);stroke-width:6.00022;stroke-dasharray:none"
         id="path234"
         sodipodi:type="arc"
         sodipodi:cx="97.746239"
         sodipodi:cy="-87.576828"
         sodipodi:rx="28.624466"
         sodipodi:ry="29.556812"
         sodipodi:start="4.0039227"
         sodipodi:end="3.8728293"
         sodipodi:open="true"
         sodipodi:arc-type="arc"
         d="m 79.121161,-110.02111 a 28.624466,29.556812 0 0 1 39.739399,2.48744 28.624466,29.556812 0 0 1 -1.10552,41.093253 28.624466,29.556812 0 0 1 -39.811851,0.205606 28.624466,29.556812 0 0 1 -1.503547,-41.079779"
         transform="matrix(-0.32119465,0.9470132,-0.95079908,-0.30980817,0,0)" />
      <path
         style="fill:none;stroke:url(#linearGradient986);stroke-width:6.00022;stroke-dasharray:none"
         id="path234-8"
         sodipodi:type="arc"
         sodipodi:cx="159.95381"
         sodipodi:cy="102.57658"
         sodipodi:rx="28.624466"
         sodipodi:ry="29.556812"
         sodipodi:start="4.0039227"
         sodipodi:end="3.8728293"
         sodipodi:open="true"
         sodipodi:arc-type="arc"
         d="m 141.32873,80.132294 a 28.624466,29.556812 0 0 1 39.73941,2.487439 28.624466,29.556812 0 0 1 -1.10552,41.093257 28.624466,29.556812 0 0 1 -39.81186,0.2056 28.624466,29.556812 0 0 1 -1.50355,-41.079776"
         transform="matrix(0.32119465,0.9470132,0.95079908,-0.30980817,0,0)" />
      <path
         style="fill:#000000;stroke-width:6.26905;stroke-dasharray:none"
         d="m 73.968661,105.74686 c 0,0 11.488338,-6.097753 26.093669,-6.097753 14.60534,0 26.76997,6.035263 26.76997,6.035263 -1.2393,2.10893 -2.26646,3.87936 -3.1699,6.07162 0,0 -7.48078,-7.0697 -23.51101,-7.42319 -16.030243,-0.35348 -23.065737,7.42319 -23.065737,7.42319 -0.93213,-2.09021 -1.90069,-3.88589 -3.116992,-6.00913 z"
         id="path1045"
         sodipodi:nodetypes="csccscc" />
    </g>
  </g>
</svg>
